<svg version="1.1" xmlns="http://www.w3.org/2000/svg" viewBox="0 0 869 865.5" width="869" height="865.5">
  <!-- svg-source:excalidraw -->
  
  <defs>
    <style class="style-fonts">
      
    </style>
    
  </defs>
  <rect x="0" y="0" width="869" height="865.5" fill="#07b8ba"></rect><g stroke-linecap="round" transform="translate(15 11) rotate(0 140 140)"><path d="M0 0 C81.79 -2, 163.86 -0.47, 280 0 M0 0 C83.25 1.4, 166.43 1.32, 280 0 M280 0 C278.98 63.25, 280.67 126.05, 280 280 M280 0 C282.17 76.21, 281.35 151, 280 280 M280 280 C200.65 277.01, 122.13 277.46, 0 280 M280 280 C170.1 278.71, 61.87 279.19, 0 280 M0 280 C0.68 190.44, 0.51 104.49, 0 0 M0 280 C-1.3 198.84, -2.47 116.78, 0 0" stroke="#1e1e1e" stroke-width="2" fill="none"></path></g><g stroke-linecap="round" transform="translate(297 10) rotate(0 140 140)"><path d="M0 0 C72.28 1.21, 143.82 -0.54, 280 0 M0 0 C57.19 1.44, 113.99 0.52, 280 0 M280 0 C277.97 78.75, 277.76 157, 280 280 M280 0 C280.61 73.88, 280.43 148.62, 280 280 M280 280 C216.92 280.27, 157.35 280, 0 280 M280 280 C224.09 280.24, 167.43 279.67, 0 280 M0 280 C-0.44 179.18, 0.83 77.92, 0 0 M0 280 C-0.65 186.18, -1.43 93.15, 0 0" stroke="#1e1e1e" stroke-width="2" fill="none"></path></g><g stroke-linecap="round" transform="translate(579 10) rotate(0 140 140)"><path d="M0 0 C72.1 0.79, 143.62 -0.51, 280 0 M0 0 C101.07 1.63, 202.3 2.22, 280 0 M280 0 C282.37 105.81, 280.75 209.86, 280 280 M280 0 C282.39 109.21, 282.05 217.67, 280 280 M280 280 C223.7 279.23, 166.48 279.31, 0 280 M280 280 C171.4 280.36, 63.43 279.99, 0 280 M0 280 C-0.83 172.11, -0.78 61.48, 0 0 M0 280 C-1.39 208.3, -1.77 137.98, 0 0" stroke="#1e1e1e" stroke-width="2" fill="none"></path></g><g stroke-linecap="round" transform="translate(14 293.5) rotate(0 140 140)"><path d="M0 0 C83.3 -2.17, 169.02 -1.57, 280 0 M0 0 C57.92 -1.59, 116.2 -0.65, 280 0 M280 0 C281.46 63.94, 279.76 129.14, 280 280 M280 0 C277.78 65.19, 278.28 129.47, 280 280 M280 280 C207.26 279.3, 133.81 279.55, 0 280 M280 280 C207.24 281, 136.07 280.67, 0 280 M0 280 C0.48 217.44, 1.83 155.66, 0 0 M0 280 C-1.58 198.11, -1.77 116.8, 0 0" stroke="#1e1e1e" stroke-width="2" fill="none"></path></g><g stroke-linecap="round" transform="translate(296 292.5) rotate(0 140 140)"><path d="M0 0 C96.74 1.11, 189.68 0.62, 280 0 M0 0 C101.75 1.29, 203.95 0.92, 280 0 M280 0 C279.22 58.08, 279.48 116.96, 280 280 M280 0 C278.5 65.39, 278.25 131.46, 280 280 M280 280 C191.7 277.54, 100.18 279.25, 0 280 M280 280 C180.19 278.83, 79.59 278.77, 0 280 M0 280 C1.84 194.27, 1.57 107.12, 0 0 M0 280 C-0.39 216.5, -0.23 152.97, 0 0" stroke="#1e1e1e" stroke-width="2" fill="none"></path></g><g stroke-linecap="round" transform="translate(578 292.5) rotate(0 140 140)"><path d="M0 0 C59.12 -0.22, 122.05 0.11, 280 0 M0 0 C76.48 -1.72, 153.32 -1.92, 280 0 M280 0 C277.11 62.17, 277.15 125.71, 280 280 M280 0 C279.65 96.54, 280.09 193.16, 280 280 M280 280 C215.89 279.59, 153.97 277.27, 0 280 M280 280 C203.51 277.86, 128.26 277.86, 0 280 M0 280 C-0.31 192.23, -1.31 102.27, 0 0 M0 280 C0.31 212.12, -0.4 146.19, 0 0" stroke="#1e1e1e" stroke-width="2" fill="none"></path></g><g stroke-linecap="round" transform="translate(10 575.5) rotate(0 140 140)"><path d="M0 0 C85.58 -0.39, 169.11 0.76, 280 0 M0 0 C94.53 -0.97, 187.01 -1.11, 280 0 M280 0 C280.69 96.43, 281.19 194.67, 280 280 M280 0 C282.35 77.33, 282.38 154.49, 280 280 M280 280 C206.66 279.67, 132.61 279.66, 0 280 M280 280 C200.58 278.89, 120.1 279.96, 0 280 M0 280 C-0.85 167.51, -0.45 56.68, 0 0 M0 280 C0.01 213.32, -1.23 147.72, 0 0" stroke="#1e1e1e" stroke-width="2" fill="none"></path></g><g stroke-linecap="round" transform="translate(292 574.5) rotate(0 140 140)"><path d="M0 0 C77.58 1.47, 157.44 1.79, 280 0 M0 0 C104.41 -1.28, 210.48 -1.45, 280 0 M280 0 C279.86 92.48, 279.27 186.66, 280 280 M280 0 C281.24 91.46, 280.59 183.94, 280 280 M280 280 C193.88 278.99, 109.53 279.95, 0 280 M280 280 C201.28 278.5, 124.09 277.96, 0 280 M0 280 C0.9 180.98, 0.75 84.89, 0 0 M0 280 C-2.11 199.88, -0.99 119.09, 0 0" stroke="#1e1e1e" stroke-width="2" fill="none"></path></g><g stroke-linecap="round" transform="translate(574 574.5) rotate(0 140 140)"><path d="M0 0 C69.71 0.19, 139.49 0.94, 280 0 M0 0 C107.72 -1.08, 214.95 -1.55, 280 0 M280 0 C279.97 67.8, 280.75 133.33, 280 280 M280 0 C280.69 80.42, 281.01 160.22, 280 280 M280 280 C203.41 279.95, 126.97 280.06, 0 280 M280 280 C221.54 280.98, 161.98 280.5, 0 280 M0 280 C0.18 223.43, 0.95 167.14, 0 0 M0 280 C2.47 211.94, 1.94 144.58, 0 0" stroke="#1e1e1e" stroke-width="2" fill="none"></path></g><g stroke-linecap="round" transform="translate(175 208) rotate(0 25 25)"><path d="M31.21 0.73 C36.2 1.69, 42.33 5.69, 45.59 10.03 C48.85 14.37, 51 21.36, 50.77 26.76 C50.55 32.16, 48.17 38.54, 44.24 42.43 C40.3 46.33, 32.5 49.49, 27.14 50.13 C21.77 50.77, 16.26 49.36, 12.07 46.25 C7.87 43.14, 3.7 36.82, 1.96 31.49 C0.22 26.16, -0.34 19.01, 1.62 14.28 C3.59 9.54, 8.12 5.01, 13.74 3.09 C19.36 1.17, 30.94 2.3, 35.34 2.76 C39.75 3.22, 40.39 5.63, 40.14 5.85 M31.82 1.97 C36.39 2.97, 42.21 7.52, 45.12 11.75 C48.04 15.99, 49.72 22.07, 49.32 27.38 C48.92 32.68, 46.35 39.77, 42.71 43.58 C39.06 47.39, 32.94 50.25, 27.46 50.23 C21.97 50.21, 14.37 46.76, 9.81 43.45 C5.24 40.14, 1.37 35.13, 0.04 30.38 C-1.29 25.63, -0.93 19.85, 1.83 14.95 C4.6 10.05, 11.76 3.08, 16.63 0.98 C21.51 -1.12, 28.28 2.36, 31.09 2.34 C33.89 2.32, 33.48 0.79, 33.45 0.85" stroke="none" stroke-width="0" fill="#a5d8ff"></path><path d="M22.84 0.8 C27.89 0.15, 36.25 2.29, 40.65 5.52 C45.05 8.74, 48.19 14.93, 49.24 20.15 C50.28 25.37, 49.22 32.22, 46.92 36.85 C44.62 41.48, 40.13 45.75, 35.43 47.92 C30.72 50.09, 23.88 51.32, 18.69 49.87 C13.51 48.41, 7.25 43.68, 4.32 39.19 C1.39 34.7, 0.46 28.18, 1.11 22.91 C1.76 17.65, 3.58 11.37, 8.22 7.61 C12.87 3.85, 24.71 1.21, 28.97 0.34 C33.23 -0.52, 33.98 2.1, 33.78 2.43 M22.39 1.34 C27.3 0.12, 32.74 -0.24, 37.25 2.31 C41.76 4.87, 47.83 11.48, 49.46 16.65 C51.09 21.83, 49.15 28.49, 47.04 33.36 C44.93 38.24, 41.44 43.34, 36.82 45.92 C32.19 48.49, 24.66 49.68, 19.27 48.83 C13.88 47.97, 7.46 44.91, 4.48 40.79 C1.49 36.66, 1.12 29.39, 1.33 24.07 C1.55 18.76, 2.25 12.96, 5.79 8.91 C9.32 4.86, 20.15 1.04, 22.54 -0.22 C24.94 -1.48, 20.15 0.72, 20.16 1.37" stroke="#1e1e1e" stroke-width="2" fill="none"></path></g><g stroke-linecap="round" transform="translate(27 509) rotate(0 26 26)"><path d="M18.33 1.92 C23.34 0.04, 31.85 -0.06, 37.08 1.99 C42.31 4.05, 47.2 9.25, 49.71 14.26 C52.22 19.26, 53.48 26.46, 52.14 32.01 C50.79 37.57, 46.41 44.18, 41.64 47.58 C36.87 50.97, 29.09 52.74, 23.53 52.38 C17.96 52.02, 12.18 49.39, 8.25 45.4 C4.32 41.4, 0.63 34.04, -0.07 28.43 C-0.77 22.82, 0.87 16.39, 4.07 11.73 C7.28 7.07, 16.45 2.39, 19.15 0.45 C21.85 -1.48, 20.16 -0.29, 20.28 0.11 M20.64 1.45 C26.09 0.43, 35.53 0.86, 40.48 3.35 C45.43 5.83, 48.71 11.03, 50.35 16.36 C51.99 21.69, 52.49 29.89, 50.33 35.33 C48.16 40.76, 42.07 46.49, 37.36 48.97 C32.66 51.45, 27.38 51.02, 22.08 50.18 C16.77 49.35, 9.01 48.25, 5.54 43.94 C2.07 39.64, 1.33 29.91, 1.27 24.34 C1.22 18.78, 2.06 14.35, 5.23 10.56 C8.4 6.77, 17.4 3.05, 20.3 1.58 C23.2 0.12, 22.26 1.43, 22.63 1.77" stroke="none" stroke-width="0" fill="#ffec99"></path><path d="M22.27 -0.25 C27.33 -1.3, 34.2 1.08, 38.95 4.16 C43.69 7.24, 48.94 12.99, 50.75 18.23 C52.56 23.46, 51.93 30.39, 49.8 35.57 C47.68 40.75, 42.77 46.54, 37.99 49.33 C33.22 52.13, 26.53 53.7, 21.16 52.35 C15.79 51, 9.4 45.76, 5.77 41.25 C2.14 36.73, -0.75 30.57, -0.61 25.27 C-0.47 19.96, 2.34 13.51, 6.61 9.44 C10.88 5.36, 21.5 2.35, 25.01 0.82 C28.52 -0.7, 27.73 -0.11, 27.69 0.26 M30.01 1.18 C35.67 1.87, 42.98 5.09, 46.8 9.24 C50.63 13.39, 52.95 20.79, 52.96 26.09 C52.96 31.39, 50.7 36.85, 46.84 41.03 C42.99 45.21, 35.49 50.09, 29.84 51.17 C24.19 52.25, 17.62 49.89, 12.93 47.52 C8.25 45.15, 3.82 41.87, 1.73 36.97 C-0.35 32.08, -1.37 23.58, 0.44 18.15 C2.24 12.72, 7.52 7.53, 12.57 4.4 C17.62 1.27, 27.9 0.12, 30.74 -0.64 C33.58 -1.4, 29.63 -0.91, 29.61 -0.17" stroke="#1e1e1e" stroke-width="2" fill="none"></path></g><g stroke-linecap="round" transform="translate(344 473) rotate(0 26 26)"><path d="M28.15 0.1 C33.59 0.25, 41.96 4.23, 45.94 8.27 C49.92 12.31, 51.97 18.76, 52.02 24.36 C52.08 29.96, 49.69 37.44, 46.28 41.89 C42.87 46.34, 36.97 49.77, 31.56 51.06 C26.15 52.34, 18.89 52.25, 13.81 49.63 C8.74 47.01, 3.23 40.5, 1.11 35.33 C-1.01 30.16, -0.82 23.83, 1.08 18.59 C2.97 13.35, 7.44 6.71, 12.49 3.89 C17.54 1.07, 27.73 1.89, 31.39 1.67 C35.06 1.45, 34.31 2.44, 34.48 2.58 M23.52 0.52 C28.56 -0.32, 36.95 0.71, 41.68 4.18 C46.42 7.65, 50.9 15.63, 51.92 21.32 C52.93 27, 50.5 33.6, 47.78 38.3 C45.07 43, 40.36 47.37, 35.62 49.52 C30.88 51.67, 24.37 52.54, 19.36 51.19 C14.35 49.84, 8.81 46.22, 5.55 41.4 C2.28 36.58, -0.7 27.99, -0.22 22.27 C0.25 16.54, 4.03 10.72, 8.38 7.04 C12.74 3.36, 23.2 1.08, 25.91 0.2 C28.63 -0.67, 24.66 1.57, 24.7 1.8" stroke="none" stroke-width="0" fill="#ffec99"></path><path d="M33.18 0.41 C38.29 1.38, 44.17 6.42, 47.27 11.07 C50.38 15.72, 52.25 22.64, 51.8 28.3 C51.35 33.96, 48.47 41.14, 44.58 45.05 C40.69 48.97, 34.08 51.44, 28.46 51.8 C22.85 52.16, 15.53 50.52, 10.88 47.21 C6.23 43.9, 1.87 37.35, 0.56 31.92 C-0.74 26.48, 0.66 19.43, 3.05 14.6 C5.43 9.78, 9.51 5.12, 14.86 2.97 C20.22 0.82, 31.54 1.86, 35.16 1.73 C38.79 1.59, 36.83 1.71, 36.61 2.17 M20.69 0 C25.68 -1.53, 32.52 -0.99, 37.21 1.62 C41.91 4.23, 46.47 10.48, 48.87 15.69 C51.26 20.89, 53.3 27.45, 51.58 32.85 C49.86 38.25, 43.52 44.97, 38.55 48.1 C33.58 51.22, 26.96 52.25, 21.77 51.59 C16.58 50.93, 10.8 48.07, 7.41 44.14 C4.02 40.21, 1.85 33.45, 1.41 27.99 C0.97 22.53, 1.43 15.9, 4.79 11.38 C8.15 6.86, 18.99 2.4, 21.56 0.87 C24.13 -0.66, 20.5 1.58, 20.22 2.18" stroke="#1e1e1e" stroke-width="2" fill="none"></path></g><g stroke-linecap="round" transform="translate(414 102) rotate(0 26 26)"><path d="M22.97 1.07 C28.33 0.14, 36.51 1.67, 41.17 4.5 C45.83 7.34, 49.39 12.87, 50.95 18.09 C52.51 23.32, 52.75 30.74, 50.52 35.84 C48.29 40.94, 42.62 46.21, 37.58 48.68 C32.54 51.14, 25.75 51.93, 20.28 50.63 C14.8 49.34, 8.05 45.25, 4.71 40.91 C1.38 36.56, -0.05 30.11, 0.27 24.56 C0.59 19, 1.83 11.77, 6.62 7.6 C11.42 3.42, 24.59 0.41, 29.02 -0.49 C33.46 -1.39, 33.25 1.69, 33.21 2.21 M26.91 0.73 C31.9 0.52, 37.55 3.85, 41.48 7.18 C45.41 10.52, 49.35 15.64, 50.5 20.73 C51.64 25.81, 50.89 32.72, 48.34 37.69 C45.79 42.65, 40.2 48.38, 35.2 50.49 C30.21 52.6, 23.63 52.24, 18.38 50.33 C13.13 48.41, 6.83 43.76, 3.7 39.01 C0.57 34.25, -1.2 27.42, -0.39 21.81 C0.42 16.2, 4.29 9.23, 8.54 5.36 C12.8 1.49, 22.43 -0.73, 25.15 -1.4 C27.87 -2.07, 24.97 0.92, 24.88 1.34" stroke="none" stroke-width="0" fill="#ffec99"></path><path d="M37.48 3.82 C42.08 5.87, 47.13 10.63, 49.32 15.65 C51.51 20.67, 52.13 28.62, 50.63 33.94 C49.13 39.25, 44.99 44.58, 40.33 47.54 C35.67 50.5, 28.39 52.39, 22.68 51.7 C16.96 51, 9.92 47.43, 6.03 43.36 C2.14 39.3, -0.64 32.78, -0.69 27.32 C-0.73 21.86, 2.36 15.12, 5.76 10.61 C9.16 6.09, 13.69 1.07, 19.71 0.21 C25.73 -0.66, 37.89 4.26, 41.89 5.42 C45.9 6.59, 44.08 7.06, 43.76 7.2 M13.25 2.38 C17.52 -0.27, 24.03 -0.69, 29.8 0.47 C35.58 1.64, 44.01 5.14, 47.89 9.35 C51.78 13.55, 53.61 20.15, 53.12 25.7 C52.64 31.25, 48.67 38.22, 44.98 42.64 C41.28 47.06, 36.19 51.09, 30.96 52.22 C25.72 53.34, 18.59 52.14, 13.56 49.38 C8.53 46.61, 2.6 41.26, 0.79 35.62 C-1.01 29.99, 0.69 21.22, 2.75 15.55 C4.81 9.88, 11.36 3.44, 13.16 1.63 C14.95 -0.19, 13.22 4.24, 13.52 4.65" stroke="#1e1e1e" stroke-width="2" fill="none"></path></g><g stroke-linecap="round"><g transform="translate(185.61566671663422 264.25845415232584) rotate(0 -57.03218904344226 117.30942129822694)"><path d="M0 0 C-34.99 76.01, -72.51 150.79, -114.06 234.62 M0 0 C-33.48 73.51, -68.8 144.62, -114.06 234.62" stroke="#1e1e1e" stroke-width="2" fill="none"></path></g><g transform="translate(185.61566671663422 264.25845415232584) rotate(0 -57.03218904344226 117.30942129822694)"><path d="M-114.14 233.55 L-113.99 220.81 L-100.56 226.33 L-115.37 234.44" stroke="none" stroke-width="0" fill="#1e1e1e" fill-rule="evenodd"></path><path d="M-114.06 234.62 C-113.77 231.15, -114.75 226.43, -113.65 219.62 M-114.06 234.62 C-113.85 230.64, -113.99 225.14, -113.65 219.62 M-113.65 219.62 C-109.59 220.94, -105.21 224.49, -102.31 225.3 M-113.65 219.62 C-109.73 221.32, -106.85 223.38, -102.31 225.3 M-102.31 225.3 C-105.41 229.31, -110.73 232.13, -114.06 234.62 M-102.31 225.3 C-106.96 228.63, -110.56 232.73, -114.06 234.62 M-114.06 234.62 C-114.06 234.62, -114.06 234.62, -114.06 234.62 M-114.06 234.62 C-114.06 234.62, -114.06 234.62, -114.06 234.62" stroke="#1e1e1e" stroke-width="2" fill="none"></path></g></g><mask></mask><g stroke-linecap="round"><g transform="translate(216.96404040505558 252.8045785902059) rotate(0 68.38785276442701 108.6011237125548)"><path d="M0 0 C46.58 72.11, 92.08 144.07, 136.78 217.2 M0 0 C42.32 67.34, 84.12 136.66, 136.78 217.2" stroke="#1e1e1e" stroke-width="2" fill="none"></path></g><g transform="translate(216.96404040505558 252.8045785902059) rotate(0 68.38785276442701 108.6011237125548)"><path d="M138.28 215.53 L124.01 208.63 L135.17 203.53 L136.77 217.11" stroke="none" stroke-width="0" fill="#1e1e1e" fill-rule="evenodd"></path><path d="M136.78 217.2 C133.26 214.35, 128.76 210.98, 124.1 209.19 M136.78 217.2 C133.23 214.27, 128.15 212.74, 124.1 209.19 M124.1 209.19 C127.23 207.7, 127.71 207.16, 134.76 202.34 M124.1 209.19 C126.27 207.12, 129.82 205.28, 134.76 202.34 M134.76 202.34 C134.78 208.62, 136.36 213.14, 136.78 217.2 M134.76 202.34 C134.56 205.25, 135.86 208.36, 136.78 217.2 M136.78 217.2 C136.78 217.2, 136.78 217.2, 136.78 217.2 M136.78 217.2 C136.78 217.2, 136.78 217.2, 136.78 217.2" stroke="#1e1e1e" stroke-width="2" fill="none"></path></g></g><mask></mask><g stroke-linecap="round"><g transform="translate(231.61237296295667 224.83557254604307) rotate(0 85.73064297749022 -43.90543283243338)"><path d="M0 0 C51.01 -26.06, 103.29 -51.24, 171.46 -87.81 M0 0 C65.69 -33.07, 130.14 -66.7, 171.46 -87.81" stroke="#1e1e1e" stroke-width="2" fill="none"></path></g><g transform="translate(231.61237296295667 224.83557254604307) rotate(0 85.73064297749022 -43.90543283243338)"><path d="M170.78 -88.42 L160.91 -77.04 L158.14 -88.6 L172.16 -87.71" stroke="none" stroke-width="0" fill="#1e1e1e" fill-rule="evenodd"></path><path d="M171.46 -87.81 C168.41 -84.48, 166.36 -80.09, 162.27 -75.96 M171.46 -87.81 C168.18 -83.1, 164.71 -79.1, 162.27 -75.96 M162.27 -75.96 C161.01 -78.17, 158.36 -82.1, 156.47 -87.23 M162.27 -75.96 C161.61 -78.49, 159.4 -79.97, 156.47 -87.23 M156.47 -87.23 C158.69 -88.79, 161.47 -88, 171.46 -87.81 M156.47 -87.23 C160.91 -88.22, 166.93 -88.07, 171.46 -87.81 M171.46 -87.81 C171.46 -87.81, 171.46 -87.81, 171.46 -87.81 M171.46 -87.81 C171.46 -87.81, 171.46 -87.81, 171.46 -87.81" stroke="#1e1e1e" stroke-width="2" fill="none"></path></g></g><mask></mask><g stroke-linecap="round" transform="translate(436 737) rotate(0 24.5 24.5)"><path d="M18.98 0.86 C23.71 -0.55, 30.95 0.21, 35.53 2.5 C40.11 4.8, 44.33 9.91, 46.48 14.63 C48.62 19.36, 49.83 25.81, 48.41 30.87 C46.99 35.93, 42.34 42.1, 37.97 45.01 C33.61 47.93, 27.38 48.89, 22.23 48.36 C17.09 47.83, 10.82 45.48, 7.09 41.81 C3.37 38.15, 0.29 31.73, -0.13 26.37 C-0.55 21.02, 1.39 14.05, 4.58 9.68 C7.78 5.31, 16.54 1.66, 19.04 0.16 C21.54 -1.35, 19.46 0.17, 19.6 0.65 M24.33 -0.22 C29.21 -0.42, 35.97 2.55, 40 6.05 C44.03 9.55, 47.55 15.56, 48.51 20.76 C49.47 25.97, 48.44 32.68, 45.77 37.27 C43.1 41.85, 37.32 46.46, 32.48 48.27 C27.64 50.08, 21.62 50.15, 16.72 48.13 C11.81 46.1, 5.91 40.87, 3.07 36.1 C0.22 31.33, -1.3 24.48, -0.34 19.5 C0.62 14.52, 4.57 9.5, 8.84 6.22 C13.1 2.94, 22.65 0.71, 25.24 -0.18 C27.84 -1.07, 24.61 0.4, 24.41 0.88" stroke="none" stroke-width="0" fill="#ffc9c9"></path><path d="M23.51 -0.39 C28.6 -0.94, 35.35 1.87, 39.5 5.12 C43.65 8.37, 47.31 14.05, 48.4 19.09 C49.49 24.14, 48.34 30.74, 46.02 35.41 C43.7 40.08, 39.17 45.07, 34.48 47.13 C29.79 49.19, 22.92 49.29, 17.9 47.75 C12.88 46.22, 7.29 42.34, 4.35 37.92 C1.41 33.5, -0.2 26.52, 0.26 21.24 C0.73 15.96, 3.3 9.72, 7.16 6.26 C11.01 2.81, 20.63 1.53, 23.4 0.51 C26.16 -0.5, 23.73 -0.13, 23.74 0.17 M26.75 0.7 C31.8 0.95, 38.74 3.94, 42.37 7.63 C45.99 11.33, 48.12 17.76, 48.48 22.88 C48.84 28, 47.55 34.05, 44.54 38.35 C41.54 42.65, 35.66 47.42, 30.46 48.69 C25.26 49.96, 18.01 48.3, 13.35 45.98 C8.69 43.66, 4.49 39.36, 2.5 34.75 C0.51 30.13, 0.05 23.34, 1.41 18.3 C2.78 13.26, 6.52 7.67, 10.68 4.53 C14.84 1.38, 23.76 0.21, 26.39 -0.57 C29.03 -1.35, 26.45 -0.75, 26.5 -0.14" stroke="#1e1e1e" stroke-width="2" fill="none"></path></g><g stroke-linecap="round" transform="translate(625.5 486.5) rotate(0 24.5 24.5)"><path d="M29.79 0.11 C34.78 0.8, 40.68 4.82, 43.93 9.03 C47.18 13.25, 49.39 20.18, 49.28 25.41 C49.17 30.63, 46.73 36.45, 43.25 40.38 C39.77 44.32, 33.74 48.2, 28.4 49.02 C23.05 49.85, 15.69 48.15, 11.17 45.33 C6.65 42.51, 2.77 37.19, 1.26 32.13 C-0.24 27.06, 0.29 19.76, 2.16 14.95 C4.02 10.15, 7.74 5.64, 12.44 3.3 C17.15 0.96, 27.19 1.14, 30.39 0.93 C33.58 0.71, 31.65 1.54, 31.6 1.99 M24.76 0.05 C29.88 -0.07, 36.84 2.94, 40.95 6.31 C45.07 9.68, 48.75 15.06, 49.43 20.28 C50.1 25.51, 47.85 33.21, 45.01 37.67 C42.17 42.13, 37.37 45.46, 32.4 47.04 C27.43 48.61, 20.1 48.88, 15.2 47.13 C10.3 45.39, 5.46 41.1, 2.99 36.57 C0.52 32.03, -0.75 25.22, 0.37 19.91 C1.49 14.59, 5.64 8.09, 9.68 4.67 C13.73 1.25, 22.08 -0.05, 24.64 -0.63 C27.21 -1.21, 25.09 0.57, 25.07 1.18" stroke="none" stroke-width="0" fill="#ffc9c9"></path><path d="M21.38 0.29 C26.45 -0.52, 34.16 1.48, 38.52 4.3 C42.88 7.12, 46.08 12.26, 47.54 17.2 C49.01 22.13, 49.32 29, 47.33 33.91 C45.34 38.81, 40.36 44.26, 35.61 46.65 C30.86 49.04, 24.06 49.55, 18.84 48.26 C13.61 46.98, 7.34 43.27, 4.27 38.96 C1.21 34.64, 0.04 27.59, 0.44 22.38 C0.85 17.16, 2.86 11.48, 6.69 7.67 C10.52 3.87, 20.45 0.69, 23.41 -0.45 C26.38 -1.58, 24.53 0.33, 24.46 0.87 M21.89 0 C26.84 -0.64, 33.81 1.79, 38.2 4.85 C42.6 7.91, 46.81 13.37, 48.26 18.36 C49.72 23.35, 49.23 30.06, 46.92 34.77 C44.61 39.47, 39.27 44.3, 34.39 46.57 C29.51 48.83, 22.67 49.65, 17.63 48.36 C12.6 47.06, 7.09 43.09, 4.19 38.8 C1.28 34.5, -0.25 27.76, 0.22 22.59 C0.7 17.41, 3.18 11.39, 7.02 7.75 C10.86 4.1, 20.7 2.01, 23.26 0.72 C25.83 -0.57, 22.65 -0.18, 22.44 0.02" stroke="#1e1e1e" stroke-width="2" fill="none"></path></g><g stroke-linecap="round" transform="translate(600.5 638.5) rotate(0 24.5 24.5)"><path d="M21.61 0.46 C26.55 -0.33, 33.25 1.56, 37.64 4.41 C42.03 7.25, 46.38 12.66, 47.95 17.56 C49.52 22.46, 49.01 29.03, 47.04 33.82 C45.07 38.61, 40.79 43.92, 36.13 46.28 C31.47 48.65, 24.34 49.16, 19.1 48 C13.85 46.84, 7.87 43.41, 4.66 39.31 C1.45 35.21, -0.48 28.62, -0.17 23.37 C0.13 18.13, 2.73 11.68, 6.51 7.81 C10.28 3.95, 19.67 1.44, 22.47 0.21 C25.27 -1.02, 23.21 0.07, 23.31 0.42 M26.76 -0.23 C31.82 0.09, 38.44 3.91, 42.18 7.63 C45.92 11.35, 48.86 16.8, 49.23 22.1 C49.59 27.41, 47.63 35.11, 44.39 39.45 C41.16 43.8, 35.02 47.04, 29.82 48.16 C24.62 49.27, 17.85 48.37, 13.2 46.14 C8.55 43.91, 4.07 39.59, 1.91 34.78 C-0.25 29.97, -1.11 22.33, 0.26 17.26 C1.63 12.19, 5.65 7.15, 10.11 4.37 C14.58 1.59, 24.15 1.12, 27.06 0.57 C29.97 0.03, 27.59 0.8, 27.59 1.11" stroke="none" stroke-width="0" fill="#ffc9c9"></path><path d="M26.7 -0.15 C31.64 0.02, 37.92 3.4, 41.68 7.13 C45.45 10.86, 48.89 16.96, 49.28 22.24 C49.68 27.52, 47.18 34.55, 44.06 38.81 C40.94 43.06, 35.66 46.41, 30.57 47.77 C25.48 49.13, 18.22 49.12, 13.54 46.98 C8.86 44.84, 4.54 39.67, 2.48 34.92 C0.41 30.16, -0.21 23.63, 1.17 18.46 C2.54 13.28, 6.36 6.88, 10.73 3.85 C15.11 0.83, 24.49 0.85, 27.42 0.31 C30.35 -0.23, 28.27 0.21, 28.31 0.62 M25.35 -0.54 C30.19 -0.73, 36.49 2.06, 40.28 5.62 C44.08 9.19, 47.41 15.48, 48.13 20.84 C48.85 26.21, 47.21 33.44, 44.59 37.83 C41.97 42.23, 37.26 45.63, 32.41 47.22 C27.55 48.8, 20.26 49.3, 15.46 47.36 C10.66 45.41, 6.04 40.09, 3.62 35.56 C1.19 31.03, 0.01 25.16, 0.91 20.17 C1.81 15.18, 5.07 9.06, 9.03 5.6 C12.99 2.13, 22.08 0.1, 24.68 -0.63 C27.28 -1.36, 24.42 0.8, 24.63 1.23" stroke="#1e1e1e" stroke-width="2" fill="none"></path></g><g stroke-linecap="round" transform="translate(762.5 778.5) rotate(0 24.5 24.5)"><path d="M22.91 -0.08 C27.93 -0.5, 35.1 2.16, 39.31 5.32 C43.52 8.48, 47.01 13.78, 48.18 18.87 C49.35 23.96, 48.69 31.17, 46.33 35.84 C43.97 40.51, 38.9 44.9, 34.04 46.89 C29.18 48.87, 22.24 49.33, 17.18 47.78 C12.11 46.22, 6.46 41.88, 3.64 37.55 C0.83 33.23, -0.46 27.05, 0.28 21.82 C1.02 16.59, 4.18 9.86, 8.09 6.17 C12.01 2.48, 20.91 0.56, 23.77 -0.3 C26.64 -1.17, 25.15 0.5, 25.29 0.98 M21.47 0.65 C26.25 -0.15, 33.42 1.63, 37.94 4.58 C42.46 7.54, 47.09 13.27, 48.58 18.37 C50.08 23.47, 49.15 30.39, 46.92 35.2 C44.68 40.01, 39.83 44.99, 35.16 47.24 C30.5 49.48, 23.98 50.13, 18.92 48.68 C13.86 47.23, 7.83 43, 4.79 38.54 C1.75 34.08, 0.31 27, 0.68 21.92 C1.06 16.83, 3.35 11.66, 7.03 8.05 C10.71 4.44, 20.29 1.43, 22.75 0.23 C25.21 -0.96, 21.74 0.58, 21.81 0.89" stroke="none" stroke-width="0" fill="#ffc9c9"></path><path d="M23.61 0.17 C28.67 -0.23, 35.85 1.97, 40.09 5.23 C44.32 8.49, 47.98 14.57, 49.01 19.73 C50.04 24.9, 48.91 31.55, 46.28 36.23 C43.64 40.9, 38.15 45.85, 33.21 47.77 C28.27 49.7, 21.64 49.57, 16.63 47.76 C11.63 45.95, 5.91 41.45, 3.18 36.92 C0.46 32.39, -0.58 25.74, 0.3 20.6 C1.17 15.45, 4.35 9.48, 8.42 6.07 C12.48 2.65, 21.83 1.02, 24.69 0.08 C27.55 -0.85, 25.59 -0.01, 25.58 0.46 M21.12 -0.13 C25.93 -0.96, 33.09 1.1, 37.58 4.08 C42.08 7.05, 46.66 12.71, 48.11 17.74 C49.57 22.77, 48.32 29.58, 46.32 34.25 C44.31 38.93, 40.66 43.52, 36.07 45.77 C31.48 48.03, 24.02 48.92, 18.76 47.78 C13.49 46.64, 7.54 43.17, 4.48 38.94 C1.41 34.71, 0.07 27.73, 0.35 22.41 C0.63 17.09, 2.6 10.73, 6.18 7.02 C9.75 3.31, 19.16 1.13, 21.82 0.17 C24.48 -0.8, 22.03 0.79, 22.13 1.24" stroke="#1e1e1e" stroke-width="2" fill="none"></path></g></svg>